<?xml version="1.0" encoding="UTF-8"?>
<svg version="1.1" viewBox="0 0 130 242" xmlns="http://www.w3.org/2000/svg">
<title>Logo</title>
<desc>Created with Sketch.</desc>
<g fill="none" fill-rule="evenodd">
<g transform="translate(-120 -70)">
<g transform="translate(120 70)">
<path d="m0 110.08s22.083-49.618 63.334-55.456c41.25-5.8379 64.583 30.431 66.666 68.379-4.1666-16.258-26.053-59.069-66.307-55.075-34.87 3.4598-63.693 42.152-63.693 42.152" fill="#fff" opacity=".85"/>
<path d="m61.786 98s1.0861 18.139-17.618 39.397c-17.109 19.447-43.661 31.95-35.722 61.603 2.9241-20.673 23.775-22.847 43.664-50.271 15.943-21.982 9.6761-50.729 9.6761-50.729" fill="#fff" opacity=".85"/>
<path d="m76.463 88.894s9.1689 43.6-7.0851 69.74c6.4601-25.304 0.97276-47.4 0.97276-47.4s-1.1023 16.443-7.502 36.107c-3.6211 11.126-10.778 22.825-15.837 34.294-12.699 28.793-6.498 60.365-6.498 60.365s2.8746-34.069 19.348-56.879c8.9601-12.408 17.814-18.582 24.102-27.185 9.7888-13.391 13.82-26.091 15.004-40.011 3.0558 8.0855 3.8896 39.592-12.503 67.475 30.632-29.695 25.631-74.864 10.906-99.4-0.34705 9.3406-2.2926 19.238-7.1542 34.574-3.4734-18.542-13.753-31.681-13.753-31.681" fill="#fff" opacity=".85"/>
<path d="m49 115s-1.9932 4.4814-20.417 12.202c-5.739 2.4054-9.9679 5.722-9.5553 11.513 0.19874 2.7931 2.6124 6.0672 6.6693 6.2737 7.9157 0.40366 21.31-9.9962 23.303-29.989" fill="#fff" opacity=".85"/>
<path d="m0 110.06s10.951-21.602 36.837-11.26c0 7.743 8.1628 14.197 8.1628 14.197s-19.256-10.299-45-2.9366" fill="#fff" opacity=".85"/>
<path d="m94.075 0s6.813 20.419-15.393 28.411c-3.3116 1.1918-7.2311 2.2514-11.46 3.4147 7.258-5.0263 9.4854-11.976 8.9305-18.797-1.3031 4.5792-6.341 12.059-28.522 19.327-2.1837 0.71565-4.1755 1.6168-6.0102 2.6428 0.46903-2.4047 0.47776-4.2567 0.47776-4.2567-23.106 8.5812-24.811 37.469-23.921 44.259 0 0 10.709-17.357 38.367-24.977 32.631-8.9902 38.787-15.855 41.612-26.056 3.2883-11.872-4.0802-23.967-4.0802-23.967" fill="#903232"/>
</g>
</g>
</g>
</svg>
