<svg version="1.1" viewBox="0 0 1386 2525" xmlns="http://www.w3.org/2000/svg">
<g fill="none" fill-rule="evenodd">
<g transform="translate(-27 -30)" fill="#fff">
<g transform="translate(20 20)">
<g transform="translate(7 10)">
<path d="m0 1128s235.44-529.98 675.23-592.33c439.78-62.356 688.56 325.04 710.77 730.36-44.422-173.66-277.77-630.93-706.94-588.27-371.77 36.955-679.06 450.24-679.06 450.24"/>
<path d="m650.12 993s11.52 193.06-186.87 419.33c-181.47 206.98-463.12 340.06-378.91 655.67 31.017-220.04 252.18-243.18 463.15-535.06 169.11-233.97 102.64-539.94 102.64-539.94"/>
<path d="m817.79 896.77s97.845 463.67-75.608 741.65c68.939-269.09 10.381-504.08 10.381-504.08s-11.763 174.86-80.057 383.99c-38.643 118.32-115.02 242.73-169 364.71-135.52 306.2-69.342 641.96-69.342 641.96s30.677-362.31 206.47-604.89c95.617-131.95 190.1-197.61 257.21-289.1 104.46-142.4 147.47-277.46 160.11-425.5 32.61 85.986 41.508 421.05-133.43 717.57 326.89-315.79 273.52-796.15 116.38-1057.1-3.7036 99.334-24.465 204.59-76.346 367.68-37.066-197.18-146.77-336.91-146.77-336.91"/>
<path d="m517 1173s-21.393 48.101-219.14 130.97c-61.598 25.818-106.99 61.416-102.56 123.57 2.1331 29.98 28.04 65.121 71.584 67.338 84.962 4.3326 228.72-107.29 250.12-321.88"/>
<path d="m1003.5 0s72.672 216.72-164.19 301.54c-35.324 12.649-77.132 23.895-122.24 36.241 77.419-53.346 101.18-127.11 95.259-199.5-13.9 48.601-67.638 127.98-304.24 205.12-23.293 7.5954-44.539 17.159-64.109 28.049 5.003-25.522 5.0961-45.177 5.0961-45.177-246.46 91.075-264.65 397.67-255.16 469.73 0 0 114.23-184.21 409.25-265.09 348.06-95.416 413.73-168.27 443.87-276.55 35.075-126-43.522-254.37-43.522-254.37"/>
<path d="m0 1127.9s116.08-221.1 390.47-115.25c0 79.252 86.526 145.31 86.526 145.31s-204.11-105.42-477-30.057"/>
</g>
</g>
</g>
</g>
</svg>
